<?xml version="1.0" encoding="UTF-8" standalone="no"?>
<!-- Created with Inkscape (http://www.inkscape.org/) -->

<svg
   xmlns:dc="http://purl.org/dc/elements/1.1/"
   xmlns:cc="http://creativecommons.org/ns#"
   xmlns:rdf="http://www.w3.org/1999/02/22-rdf-syntax-ns#"
   xmlns:svg="http://www.w3.org/2000/svg"
   xmlns="http://www.w3.org/2000/svg"
   xmlns:xlink="http://www.w3.org/1999/xlink"
   xmlns:sodipodi="http://sodipodi.sourceforge.net/DTD/sodipodi-0.dtd"
   xmlns:inkscape="http://www.inkscape.org/namespaces/inkscape"
   width="210mm"
   height="297mm"
   viewBox="0 0 744.09448819 1052.3622047"
   id="svg3783"
   version="1.1"
   inkscape:version="0.91 r13725"
   sodipodi:docname="basket.svg">
  <defs
     id="defs3785" />
  <sodipodi:namedview
     id="base"
     pagecolor="#ffffff"
     bordercolor="#666666"
     borderopacity="1.0"
     inkscape:pageopacity="0.0"
     inkscape:pageshadow="2"
     inkscape:zoom="0.24748737"
     inkscape:cx="772.46829"
     inkscape:cy="593.53961"
     inkscape:document-units="px"
     inkscape:current-layer="layer2"
     showgrid="false"
     showguides="true"
     inkscape:guide-bbox="true"
     inkscape:window-width="1280"
     inkscape:window-height="1000"
     inkscape:window-x="0"
     inkscape:window-y="24"
     inkscape:window-maximized="1">
    <sodipodi:guide
       position="640,9942.8573"
       orientation="0,1"
       id="guide4009" />
  </sodipodi:namedview>
  <metadata
     id="metadata3788">
    <rdf:RDF>
      <cc:Work
         rdf:about="">
        <dc:format>image/svg+xml</dc:format>
        <dc:type
           rdf:resource="http://purl.org/dc/dcmitype/StillImage" />
        <dc:title></dc:title>
      </cc:Work>
    </rdf:RDF>
  </metadata>
  <g
     inkscape:label="Layer 1"
     inkscape:groupmode="layer"
     id="layer1"
     style="display:none"
     sodipodi:insensitive="true">
    <image
       sodipodi:absref="/home/john/Desktop/basket1.png"
       y="160.93365"
       x="40.714291"
       id="image3853"
       xlink:href="file:///home/john/Desktop/basket1.png"
       preserveAspectRatio="none"
       height="640"
       width="640" />
  </g>
  <g
     inkscape:groupmode="layer"
     id="layer2"
     inkscape:label="Layer 2"
     style="display:inline;opacity:1">
    <path
       style="display:inline;opacity:1;fill:#000000;fill-opacity:1;stroke:#ff0000;stroke-width:0;stroke-miterlimit:4;stroke-dasharray:none;stroke-dashoffset:0;stroke-opacity:1"
       d="m 270.20117,220.91799 c -0.25947,-0.007 -0.52048,-0.003 -0.78125,0.01 -1.39077,0.0678 -2.79258,0.41177 -4.13086,1.05865 l -40.19531,19.42748 c -5.35312,2.58747 -7.59364,9.01265 -5.02539,14.40582 L 298.85742,421.2712 87.857422,420.98982 c -38.868813,0.6888 -27.142578,69.08732 -27.142578,69.08731 1.42773,40.29929 40.712886,31.66289 40.712886,31.66289 l 30,179.90644 c 5.76942,34.59855 28.03457,63.32774 62.85743,63.32774 l 334.28711,0 c 34.82285,0 62.85546,-28.24432 62.85546,-63.32774 L 620,521.74002 c 0,0 30.5523,10.08479 41.42773,-23.02844 0,0 15.14664,-77.55115 -32.14257,-77.00157 l -257.16407,-0.34238 -92.5332,-194.31816 c -1.80579,-3.79208 -5.49471,-6.03383 -9.38672,-6.13148 z m 91.22656,224.17663 a 37.504353,37.784974 0 0 1 37.50586,37.78452 37.504353,37.784974 0 0 1 -37.50586,37.78453 37.504353,37.784974 0 0 1 -37.5039,-37.78453 37.504353,37.784974 0 0 1 37.5039,-37.78452 z"
       id="rect3865"
       inkscape:connector-curvature="0" />
    <path
       style="opacity:1;fill:#ffffff;fill-opacity:1;stroke:#ff0000;stroke-width:0;stroke-miterlimit:4;stroke-dasharray:none;stroke-dashoffset:0;stroke-opacity:1"
       d="m 283.86782,554.48674 40.18202,-2.78073 c 5.29331,-0.36632 9.90428,3.59604 10.33849,8.88421 l 11.76694,143.30629 c 1.09501,13.33586 -5.483,17.43959 -9.27601,17.40398 L 296.8235,720.9245 c -5.30573,-0.0498 -9.27223,-4.55257 -9.95968,-12.92482 L 275.09689,564.69339 c -0.43422,-5.28817 3.47762,-9.84034 8.77093,-10.20665 z"
       id="rect3962"
       inkscape:connector-curvature="0"
       sodipodi:nodetypes="sssssssss" />
    <path
       transform="matrix(0.98776483,-0.15595075,0.15595075,0.98776483,0,0)"
       style="display:inline;opacity:1;fill:#ffffff;fill-opacity:1;stroke:#ff0000;stroke-width:0;stroke-miterlimit:4;stroke-dasharray:none;stroke-dashoffset:0;stroke-opacity:1"
       d="m 80.45527,564.9679 38.60556,0 c 5.77658,0 10.42705,4.65046 10.42705,10.42704 l 0,156.54207 c 0,12.41978 -3.25095,18.16334 -11.07685,16.97178 l -38.198635,-5.81608 c -2.715577,-0.41347 -10.184174,-1.81128 -10.184174,-11.1557 l 0,-156.54207 c 0,-5.77658 4.650464,-10.42704 10.427049,-10.42704 z"
       id="rect3962-6-1-6"
       inkscape:connector-curvature="0"
       sodipodi:nodetypes="sssssssss" />
    <path
       style="display:inline;opacity:1;fill:#ffffff;fill-opacity:1;stroke:#ff0000;stroke-width:0;stroke-miterlimit:4;stroke-dasharray:none;stroke-dashoffset:0;stroke-opacity:1"
       d="m 447.40766,554.48674 -40.18203,-2.78073 c -5.29331,-0.36632 -9.90427,3.59604 -10.33848,8.88422 l -11.76694,143.30628 c -1.09501,13.33586 5.48299,17.43958 9.27601,17.40398 l 40.05575,-0.37599 c 5.30574,-0.0498 9.27223,-4.55257 9.95968,-12.92482 l 11.76694,-143.30629 c 0.43421,-5.28817 -3.47762,-9.84034 -8.77093,-10.20665 z"
       id="rect3962-2"
       inkscape:connector-curvature="0"
       sodipodi:nodetypes="sssssssss" />
    <path
       style="display:inline;opacity:1;fill:#ffffff;fill-opacity:1;stroke:#ff0000;stroke-width:0;stroke-miterlimit:4;stroke-dasharray:none;stroke-dashoffset:0;stroke-opacity:1"
       d="M 563.69742,545.50836 525.5642,539.4878 c -5.7059,-0.90086 -11.02471,2.96745 -11.92557,8.67336 L 489.22577,702.7879 c -1.93687,12.26782 0.37859,18.4481 8.29456,18.49157 l 38.63829,0.21219 c 2.74684,0.0151 10.34204,-0.20089 11.79931,-9.43098 l 24.41286,-154.62675 c 0.90086,-5.7059 -2.96746,-11.0247 -8.67337,-11.92557 z"
       id="rect3962-6-1-6-4"
       inkscape:connector-curvature="0"
       sodipodi:nodetypes="sssssssss" />
  </g>
</svg>
