<?xml version="1.0" encoding="UTF-8" standalone="no"?>
<!-- Created with Inkscape (http://www.inkscape.org/) -->

<svg
   xmlns:dc="http://purl.org/dc/elements/1.1/"
   xmlns:cc="http://creativecommons.org/ns#"
   xmlns:rdf="http://www.w3.org/1999/02/22-rdf-syntax-ns#"
   xmlns:svg="http://www.w3.org/2000/svg"
   xmlns="http://www.w3.org/2000/svg"
   xmlns:sodipodi="http://sodipodi.sourceforge.net/DTD/sodipodi-0.dtd"
   xmlns:inkscape="http://www.inkscape.org/namespaces/inkscape"
   width="170.65492mm"
   height="153.54591mm"
   viewBox="0 0 604.6828 544.06032"
   id="svg3783"
   version="1.1"
   inkscape:version="0.91 r13725"
   sodipodi:docname="basket-transparent.svg">
  <defs
     id="defs3785" />
  <sodipodi:namedview
     id="base"
     pagecolor="#ffffff"
     bordercolor="#666666"
     borderopacity="1.0"
     inkscape:pageopacity="0.0"
     inkscape:pageshadow="2"
     inkscape:zoom="0.49497474"
     inkscape:cx="696.77299"
     inkscape:cy="182.30251"
     inkscape:document-units="px"
     inkscape:current-layer="layer2"
     showgrid="false"
     showguides="false"
     inkscape:guide-bbox="true"
     inkscape:window-width="1440"
     inkscape:window-height="876"
     inkscape:window-x="0"
     inkscape:window-y="24"
     inkscape:window-maximized="1"
     fit-margin-top="0"
     fit-margin-left="0"
     fit-margin-right="0"
     fit-margin-bottom="0">
    <sodipodi:guide
       position="580.94575,9655.47"
       orientation="0,1"
       id="guide4009" />
  </sodipodi:namedview>
  <metadata
     id="metadata3788">
    <rdf:RDF>
      <cc:Work
         rdf:about="">
        <dc:format>image/svg+xml</dc:format>
        <dc:type
           rdf:resource="http://purl.org/dc/dcmitype/StillImage" />
        <dc:title></dc:title>
      </cc:Work>
    </rdf:RDF>
  </metadata>
  <g
     inkscape:groupmode="layer"
     id="layer2"
     inkscape:label="Layer 2"
     style="display:inline;opacity:1"
     transform="translate(-59.054248,-220.91456)">
    <path
       style="display:inline;opacity:1;fill:#000000;fill-opacity:1;stroke:#ff0000;stroke-width:0;stroke-miterlimit:4;stroke-dasharray:none;stroke-dashoffset:0;stroke-opacity:1"
       d="m 270.20117,220.91797 c -0.25947,-0.007 -0.52048,-0.003 -0.78125,0.01 -1.39077,0.0678 -2.79258,0.41172 -4.13086,1.0586 l -40.19531,19.42773 c -5.35312,2.58747 -7.59364,9.01308 -5.02539,14.40625 l 78.78906,165.45117 -210.999998,-0.28125 c -38.868813,0.6888 -27.142578,69.08595 -27.142578,69.08594 1.42773,40.29929 40.712886,31.66406 40.712886,31.66406 l 30,179.90625 c 5.76942,34.59855 28.03457,63.32813 62.85743,63.32813 l 334.28711,0 c 34.82285,0 62.85546,-28.24471 62.85546,-63.32813 L 620,521.74023 c 0,0 30.5523,10.08394 41.42773,-23.02929 0,0 15.14664,-77.54958 -32.14257,-77 l -257.16407,-0.34375 -92.5332,-194.31836 c -1.80579,-3.79208 -5.49471,-6.03321 -9.38672,-6.13086 z m 91.22656,224.17578 a 37.504353,37.784974 0 0 1 37.50586,37.78516 37.504353,37.784974 0 0 1 -37.50586,37.78515 37.504353,37.784974 0 0 1 -37.5039,-37.78515 37.504353,37.784974 0 0 1 37.5039,-37.78516 z m -153.60351,94.27344 c 4.85288,0.21492 9.02424,3.80225 9.8125,8.79492 l 24.41211,154.625 c 1.93687,12.26782 -0.377,18.44871 -8.29297,18.49219 l -38.63867,0.21289 c -2.74683,0.0151 -10.34156,-0.20155 -11.79883,-9.43164 L 158.9043,557.43359 c -0.90087,-5.7059 2.96792,-11.02491 8.67382,-11.92578 l 38.13282,-6.01953 c 0.71324,-0.11261 1.42001,-0.1518 2.11328,-0.12109 z m 315.62695,0 c 0.69327,-0.0307 1.40005,0.008 2.11328,0.12109 l 38.13282,6.01953 c 5.70591,0.90087 9.57468,6.21988 8.67382,11.92578 l -24.41406,154.62696 c -1.45727,9.23009 -9.05199,9.44674 -11.79883,9.43164 l -38.63867,-0.21289 c -7.91597,-0.0435 -10.22984,-6.22437 -8.29297,-18.49219 l 24.41211,-154.625 c 0.78825,-4.99267 4.95962,-8.58 9.8125,-8.79492 z M 325.0332,551.6875 c 4.86972,0.15285 8.9484,3.94468 9.35547,8.90234 l 11.76563,143.30664 c 1.09501,13.33586 -5.48238,17.43991 -9.27539,17.4043 l -40.05469,-0.37695 C 291.51849,720.87403 287.55073,716.37225 286.86328,708 L 275.09766,564.69336 c -0.43422,-5.28817 3.47622,-9.84072 8.76953,-10.20703 l 40.18359,-2.78125 c 0.33083,-0.0229 0.65778,-0.0278 0.98242,-0.0176 z m 81.20899,0 c 0.32465,-0.0102 0.65354,-0.005 0.98437,0.0176 l 40.18164,2.78125 c 5.29331,0.36631 9.20374,4.91886 8.76953,10.20703 L 444.41211,708 c -0.68745,8.37225 -4.6552,12.87403 -9.96094,12.92383 l -40.05469,0.37695 c -3.79302,0.0356 -10.3704,-4.06844 -9.27539,-17.4043 l 11.76563,-143.30664 c 0.40707,-4.95766 4.48575,-8.74949 9.35547,-8.90234 z"
       id="rect3865"
       inkscape:connector-curvature="0" />
  </g>
</svg>
