<?xml version="1.0" encoding="UTF-8" standalone="no"?>
<svg
   xmlns:dc="http://purl.org/dc/elements/1.1/"
   xmlns:cc="http://creativecommons.org/ns#"
   xmlns:rdf="http://www.w3.org/1999/02/22-rdf-syntax-ns#"
   xmlns:svg="http://www.w3.org/2000/svg"
   xmlns="http://www.w3.org/2000/svg"
   version="1.1"
   id="svg2"
   viewBox="0 0 451.42774 593.46182"
   height="167.48811mm"
   width="127.40294mm">
  <defs
     id="defs4" />
  <metadata
     id="metadata7">
    <rdf:RDF>
      <cc:Work
         rdf:about="">
        <dc:format>image/svg+xml</dc:format>
        <dc:type
           rdf:resource="http://purl.org/dc/dcmitype/StillImage" />
        <dc:title></dc:title>
      </cc:Work>
    </rdf:RDF>
  </metadata>
  <g
     style="display:inline"
     id="layer2">
    <path
       id="rect4136"
       d="m 256.3457,0.00675078 c -8.40399,0.0663 -16.3457,0.59765 -16.3457,0.59765 l -181.4082,0 C 26.13188,0.60440078 0,26.736281 0,59.196201 L 0,534.87003 c 0,32.45992 26.13188,58.59179 58.5918,58.59179 l 334.24414,0 c 32.45992,0 58.5918,-26.13187 58.5918,-58.59179 l 0,-304.62305 0,-25.35742 0,-24.28516 c 0,0 0.0253,-16.81904 -11.78516,-28.28515 0,0 -89.10833,-88.422349 -141.70508,-140.642579 -11.78795,-9.6041702 -19.59748,-9.9910602 -27.58008,-11.07227022 -3.76027,-0.50931 -8.96932,-0.63744 -14.01172,-0.59765 z M 86.72852,36.079011 l 161.84179,0 0,148.810549 c 0,11.08 8.92,20 20,20 l 147.14454,0 0,296.36719 c 0,28.26245 -22.75317,51.01562 -51.01563,51.01562 l -277.9707,0 c -28.26246,0 -51.01367,-22.75317 -51.01367,-51.01562 l 0,-414.162109 c 0,-28.26246 22.75121,-51.01563 51.01367,-51.01563 z m 255.08398,74.623049 0.61524,0.61523 -0.61524,0 0,-0.61523 z"
       style="opacity:1;fill:#000000;fill-opacity:1;stroke:none;stroke-width:10;stroke-miterlimit:4;stroke-dasharray:none;stroke-dashoffset:0;stroke-opacity:1" />
  </g>
</svg>
